<svg width="220" height="220" viewBox="0 0 220 220" fill="none" xmlns="http://www.w3.org/2000/svg">
<g style="mix-blend-mode:luminosity">
<rect width="220" height="220" fill="#191919"/>
</g>
<rect x="1" y="1" width="218" height="218" fill="#C4C4C4" stroke="#191919" stroke-width="2"/>
<path fill-rule="evenodd" clip-rule="evenodd" d="M87.1129 67.0003H97.2826L73.5167 108.33H61L83.53 69.04C83.8796 68.4139 84.3903 67.8941 85.0084 67.5352C85.6264 67.1763 86.329 66.9915 87.0425 67.0003H87.1129ZM102.235 67.0003L95.9762 77.8841H125.93L132.188 67.0003H102.235ZM93.5042 82.2313L87.2458 93.1072H117.184L123.442 82.2313H93.5042ZM84.7738 97.4938L78.5155 108.37H108.454L114.712 97.4938H84.7738ZM135.912 69.1424L158.442 108.433C158.807 109.05 159 109.754 159 110.472C159 111.19 158.807 111.895 158.442 112.512L147.138 132.201L135.912 151.834L129.654 140.958L146.481 111.669C146.688 111.324 146.797 110.927 146.797 110.524C146.797 110.12 146.688 109.724 146.481 109.378C143.469 104.101 131.007 82.3967 129.677 80.0813L135.936 69.1975L135.912 69.1424ZM127.182 136.603L112.217 110.504L127.182 84.4049L142.147 110.504L127.182 136.603ZM132.188 154L125.93 143.124H92.2916C91.8895 143.129 91.4935 143.025 91.1452 142.822C90.7969 142.62 90.5093 142.327 90.3124 141.974L73.5167 112.677H61L83.53 151.96C83.8783 152.587 84.3887 153.108 85.0071 153.467C85.6254 153.826 86.3287 154.01 87.0425 154H132.188ZM78.5468 112.677L93.5198 138.776H123.458L108.485 112.677H78.5468Z" fill="#828282"/>
</svg>
