<svg width="63" height="54" viewBox="0 0 63 54" fill="none" xmlns="http://www.w3.org/2000/svg">
<path d="M42.3033 43.2106L51.6371 27.0063L42.2957 10.7994L32.9338 27.0063L42.2752 43.2131L42.3033 43.2106ZM0.990723 25.6685H8.81022L23.6179 0.0179052H17.3613C16.8869 0.01196 16.4193 0.131062 16.0056 0.363223C15.6118 0.613789 15.2866 0.958366 15.0592 1.36592L1.04444 25.6506L0.990723 25.6685ZM11.8925 25.6685L15.7984 18.8952H34.471L30.5651 25.6685H11.8925ZM30.5651 28.339L39.9066 44.5458H21.2339L11.8925 28.339H30.5651ZM8.75138 28.339L19.2234 46.4693C19.3319 46.6974 19.5025 46.8904 19.7156 47.0261C19.9286 47.1618 20.1756 47.2348 20.4282 47.2367H41.5155L43.5976 50.8433L45.4188 53.9998H17.4048C16.9304 54.0057 16.4628 53.8866 16.0491 53.6545C15.6556 53.4053 15.3338 53.058 15.1154 52.6467L1.10071 28.3594H8.9023L8.75138 28.339ZM17.2896 16.1966L21.2032 9.42586H39.8759L35.9623 16.1966H17.2896ZM22.7584 6.76308L26.6643 0H45.337L41.4439 6.76308H22.7584ZM43.7971 8.10854L47.7031 1.33522L61.7178 25.6199C61.9625 26.026 62.0919 26.4912 62.0919 26.9654C62.0919 27.4395 61.9625 27.9047 61.7178 28.3108L47.7031 52.5955L43.7971 45.8324L54.3178 27.6176C54.435 27.4146 54.4967 27.1844 54.4967 26.95C54.4967 26.7156 54.435 26.4854 54.3178 26.2824L43.7971 8.10854Z" fill="url(#paint0_linear)"/>
<defs>
<linearGradient id="paint0_linear" x1="41.0111" y1="44.1892" x2="21.0009" y2="10.0051" gradientUnits="userSpaceOnUse">
<stop stop-color="#5951FE"/>
<stop offset="1" stop-color="#BB6BD9"/>
</linearGradient>
</defs>
</svg>

