<svg width="191" height="104" viewBox="0 0 191 104" fill="none" xmlns="http://www.w3.org/2000/svg">
<path fill-rule="evenodd" clip-rule="evenodd" d="M80.8635 0.000183795H87.1996L72.3926 25.5787H64.5942L78.6312 1.26254C78.8491 0.87505 79.1672 0.553359 79.5523 0.33124C79.9374 0.109122 80.3751 -0.00523179 80.8196 0.000183795H80.8635ZM90.2848 0.000183795L86.3857 6.73598H105.048L108.947 0.000183795H90.2848ZM84.8455 9.4264L80.9463 16.1573H99.5989L103.498 9.4264H84.8455ZM79.4062 18.8721L75.507 25.603H94.1596L98.0588 18.8721H79.4062ZM111.267 1.3259L125.304 25.642C125.532 26.0238 125.652 26.46 125.652 26.9044C125.652 27.3488 125.532 27.7849 125.304 28.1667L118.261 40.3516L111.267 52.5023L107.368 45.7714L117.852 27.6452C117.981 27.4311 118.049 27.186 118.049 26.9361C118.049 26.6861 117.981 26.441 117.852 26.2269C115.975 22.9613 108.211 9.52875 107.383 8.09581L111.282 1.36002L111.267 1.3259ZM105.828 43.0761L96.504 26.9239L105.828 10.7716L115.152 26.9239L105.828 43.0761ZM108.947 53.8427L105.048 47.1118H84.09C83.8395 47.1149 83.5928 47.0505 83.3758 46.9253C83.1588 46.8 82.9795 46.6186 82.8569 46.4002L72.3926 28.2691H64.5942L78.6312 52.5803C78.8483 52.9685 79.1662 53.2908 79.5515 53.513C79.9367 53.7352 80.3749 53.8491 80.8196 53.8427H108.947ZM75.5265 28.2691L84.8552 44.4213H103.508L94.1791 28.2691H75.5265Z" fill="black"/>
<path fill-rule="evenodd" clip-rule="evenodd" d="M155.517 93.0781C156.727 93.1005 157.922 92.8065 158.983 92.2252C159.986 91.6664 160.811 90.835 161.361 89.8272C161.941 88.7585 162.235 87.5581 162.214 86.3423C162.244 85.4517 162.093 84.5643 161.77 83.7339C161.446 82.9036 160.957 82.1477 160.333 81.5123C159.029 80.2886 157.308 79.6075 155.52 79.6075C153.732 79.6075 152.011 80.2886 150.707 81.5123C149.494 82.8295 148.821 84.5544 148.821 86.3448C148.821 88.1351 149.494 89.8601 150.707 91.1773C151.335 91.8079 152.086 92.3021 152.914 92.6292C153.742 92.9562 154.628 93.1091 155.517 93.0781ZM163.379 94.0529C161.237 96.0248 158.431 97.1193 155.52 97.1193C152.608 97.1193 149.803 96.0248 147.66 94.0529C146.632 93.0556 145.822 91.855 145.282 90.5275C144.742 89.2 144.485 87.7747 144.527 86.3423C144.501 84.4086 144.994 82.5034 145.955 80.825C146.887 79.1936 148.258 77.8563 149.912 76.9649C151.64 76.0552 153.564 75.5798 155.517 75.5798C157.47 75.5798 159.394 76.0552 161.122 76.9649C162.776 77.8576 164.146 79.1946 165.08 80.825C166.038 82.5043 166.531 84.4089 166.508 86.3423C166.549 87.7735 166.293 89.1977 165.754 90.5243C165.215 91.8508 164.406 93.0509 163.379 94.0481V94.0529Z" fill="black"/>
<path fill-rule="evenodd" clip-rule="evenodd" d="M131.552 93.0777C132.762 93.1001 133.957 92.806 135.018 92.2247C136.021 91.666 136.846 90.8346 137.396 89.8267C137.976 88.758 138.27 87.5576 138.249 86.3419C138.28 85.4513 138.128 84.5638 137.805 83.7335C137.482 82.9031 136.993 82.1472 136.368 81.5118C135.064 80.2881 133.343 79.607 131.555 79.607C129.767 79.607 128.046 80.2881 126.742 81.5118C125.529 82.829 124.856 84.554 124.856 86.3443C124.856 88.1347 125.529 89.8596 126.742 91.1768C127.37 91.8074 128.121 92.3016 128.949 92.6287C129.777 92.9557 130.663 93.1086 131.552 93.0777ZM139.414 94.0525C137.272 96.0244 134.466 97.1189 131.555 97.1189C128.643 97.1189 125.838 96.0244 123.696 94.0525C122.665 93.0568 121.854 91.8573 121.314 90.5305C120.773 89.2037 120.515 87.7788 120.557 86.3468C120.531 84.4131 121.024 82.5078 121.985 80.8294C122.917 79.198 124.288 77.8607 125.942 76.9693C127.671 76.0596 129.594 75.5842 131.548 75.5842C133.501 75.5842 135.424 76.0596 137.153 76.9693C138.806 77.862 140.177 79.199 141.11 80.8294C142.081 82.5034 142.588 84.4065 142.577 86.3419C142.614 87.7756 142.352 89.2012 141.807 90.5279C141.263 91.8547 140.448 93.0534 139.414 94.0476V94.0525Z" fill="black"/>
<path fill-rule="evenodd" clip-rule="evenodd" d="M50.134 80.2168C48.9982 80.1827 47.8863 80.5465 46.9903 81.2452C46.1133 81.9795 45.5047 82.984 45.26 84.1013H55.1931C54.9752 83.3281 54.6002 82.608 54.0916 81.9861C53.6194 81.4239 53.0262 80.9757 52.3565 80.675C51.6568 80.3654 50.899 80.2092 50.134 80.2168ZM60.7494 86.2703C60.7477 86.8164 60.7102 87.3618 60.6373 87.903H45.0992C45.2427 89.1409 45.8317 90.2843 46.7563 91.1198C47.7023 91.8966 48.9013 92.2974 50.1242 92.2457C51.0137 92.2576 51.8914 92.0411 52.6733 91.617C53.4178 91.2142 54.0368 90.6138 54.4621 89.8819H60.3108C59.6207 92.0333 58.2568 93.9056 56.4207 95.2221C54.5845 96.5387 52.3736 97.2296 50.1145 97.1928C48.6981 97.2296 47.2896 96.9707 45.9788 96.4328C44.668 95.8949 43.4836 95.0897 42.5014 94.0686C41.5012 93.0512 40.7161 91.8429 40.1927 90.5157C39.6694 89.1885 39.4185 87.7696 39.4552 86.3434C39.4524 85.1577 39.6265 83.9782 39.9718 82.8439C40.2892 81.7674 40.7833 80.7511 41.434 79.8366C42.0712 78.9617 42.835 78.1863 43.7004 77.5361C44.5851 76.8758 45.5733 76.3669 46.6247 76.0301C47.745 75.6731 48.9143 75.4939 50.0901 75.4988C52.0341 75.4753 53.948 75.9807 55.6269 76.961C57.2222 77.8835 58.5273 79.2342 59.3945 80.8602C60.2881 82.5232 60.7537 84.3824 60.7494 86.2703Z" fill="black"/>
<path fill-rule="evenodd" clip-rule="evenodd" d="M109.313 92.5476H118.208C118.781 92.5476 119.332 92.7756 119.738 93.1814C120.144 93.5872 120.372 94.1377 120.372 94.7116V96.6222H104.921V75.8982V69.9812H107.134C107.707 69.9838 108.256 70.2126 108.661 70.6179C109.067 71.0231 109.295 71.5721 109.298 72.1452V75.8982L109.313 92.5476Z" fill="black"/>
<path fill-rule="evenodd" clip-rule="evenodd" d="M75.8774 75.5756C78.2136 75.5756 80.0592 76.3554 81.4142 77.9151C82.7691 79.4747 83.4482 81.564 83.4515 84.183V96.631H77.8952V85.0505C77.8952 81.9799 76.7027 80.4446 74.3177 80.4446C73.4607 80.4283 72.6163 80.6529 71.8807 81.0929C71.1722 81.5367 70.6162 82.1863 70.2869 82.9547C69.8985 83.8558 69.709 84.8299 69.7313 85.8109V96.6213H64.1555V75.79H69.0684V78.6169C69.4459 78.1355 69.8869 77.7075 70.3795 77.3448C70.8815 76.9615 71.4242 76.6346 71.9977 76.37C72.5874 76.0995 73.2053 75.8951 73.84 75.7608C74.5105 75.6261 75.1936 75.564 75.8774 75.5756Z" fill="black"/>
<path fill-rule="evenodd" clip-rule="evenodd" d="M39.3327 76.0679L31.1493 96.6164H26.0122L17.6777 76.0679H23.5752L28.6392 89.8465L33.5473 76.0679H39.3327Z" fill="black"/>
<path fill-rule="evenodd" clip-rule="evenodd" d="M88.5352 76.0684H85.4548V80.5231H89.1834V89.2963C89.1488 90.6605 89.4483 92.0125 90.0558 93.2344C90.6209 94.3161 91.5037 95.1989 92.5854 95.764C93.7935 96.3719 95.1326 96.6732 96.4846 96.6413H100.384V91.6699H97.8737C97.4484 91.6973 97.0219 91.6394 96.6193 91.4996C96.2167 91.3598 95.8461 91.141 95.5293 90.8559C95.2463 90.5456 95.0284 90.1817 94.8886 89.7857C94.7488 89.3898 94.6899 88.9697 94.7153 88.5505V80.5231H100.272V76.0684H94.6227V75.2739V70.7021H89.1834V75.2739V76.0684H88.5352Z" fill="black"/>
<path fill-rule="evenodd" clip-rule="evenodd" d="M5.78537 91.256H16.4008V96.6173H0V69.9812H15.9817V75.3084H5.78537V80.5625H14.9923V85.7728H5.78537V91.256Z" fill="black"/>
<path fill-rule="evenodd" clip-rule="evenodd" d="M174.502 91.1567C175.801 92.3891 177.524 93.0761 179.315 93.0761C181.106 93.0761 182.828 92.3891 184.128 91.1567C185.349 89.8517 186.029 88.1311 186.029 86.3437C186.029 84.5562 185.349 82.8356 184.128 81.5306C183.504 80.8971 182.756 80.3991 181.931 80.0678C181.105 79.7365 180.221 79.5791 179.332 79.6054C178.121 79.5907 176.928 79.8931 175.871 80.4827C174.843 81.0456 173.997 81.8913 173.434 82.9197C172.856 83.9736 172.561 85.1589 172.576 86.3607C172.55 87.2507 172.706 88.1367 173.034 88.9646C173.361 89.7925 173.854 90.545 174.482 91.1762L174.502 91.1567ZM179.639 75.56C181.556 75.5314 183.446 76.0107 185.117 76.9491C186.721 77.8563 188.039 79.1933 188.924 80.8093C189.847 82.5002 190.318 84.4004 190.293 86.3266C190.336 87.7497 190.09 89.1667 189.57 90.4919C189.049 91.8172 188.266 93.0232 187.267 94.0372C186.273 95.0492 185.08 95.8449 183.764 96.3741C182.448 96.9034 181.037 97.1548 179.619 97.1126C177.116 97.1667 174.682 96.2837 172.796 94.6367V104H170.734C170.161 103.997 169.612 103.768 169.207 103.363C168.801 102.958 168.573 102.409 168.57 101.835V75.7599H170.062C170.635 75.7624 171.184 75.9913 171.589 76.3965C171.994 76.8018 172.223 77.3508 172.226 77.9239V78.5819C173.183 77.597 174.335 76.8214 175.607 76.3038C176.88 75.7862 178.246 75.5379 179.619 75.5747L179.639 75.56Z" fill="black"/>
</svg>
