<svg width="287" height="64" viewBox="0 0 287 64" fill="none" xmlns="http://www.w3.org/2000/svg">
<g style="mix-blend-mode:exclusion">
<path d="M32.1411 40.0123V0.117188H45.1467V38.3701C45.1467 41.0636 45.7376 41.7199 48.4961 41.7199H49.6126L51.1457 52.2731C50.1599 52.4038 46.1324 52.6898 43.7007 52.6898C36.5417 52.6925 32.1411 50.1979 32.1411 40.0123ZM131.777 15.6433L141.893 14.8535L142.879 17.8683C144.916 15.962 148.461 14.0583 156.083 14.0583C169.222 14.0583 172.245 23.3233 172.245 33.6369C172.245 44.0185 168.896 53.1501 155.296 53.1501C149.254 53.1501 146.427 51.7693 144.785 50.2578V63.3982H131.777V15.6433ZM159.043 34.1652C159.043 29.7642 158.254 25.886 152.606 25.886C146.563 25.886 144.788 28.9744 144.788 34.1652C144.788 39.356 146.1 42.1802 152.606 42.1802C158.123 42.1829 159.043 38.5662 159.043 34.1652ZM218.652 15.6433L228.769 14.8535L230.084 18.7916C231.726 16.5584 236.26 14.652 241.646 14.4559V26.9781C232.973 27.0435 231.661 29.6334 231.661 34.7589V52.5618H218.652V15.6433ZM245.276 14.4777H251.978L254.08 6.83583L264.131 4.668V14.4804H272.344V26.9945H264.131V37.8472C264.131 40.41 264.526 41.7226 268.597 41.7226H272.341V52.5618C270.37 52.6925 268.202 52.7579 265.77 52.7579C254.799 52.7579 251.185 49.2746 251.185 39.8163V26.9917H245.273V14.4777H245.276Z" fill="white" fill-opacity="0.7"/>
<path d="M275.946 41.72H286.779V52.5537H275.946V41.72Z" fill="white" fill-opacity="0.7"/>
<path d="M0 14.9134H7.0937V14.1917C7.0937 4.73055 10.6419 0 22.8605 0C26.0792 0 26.6701 0.0680851 28.2468 0.198808V10.7765H24.636C20.8917 10.7765 20.1047 11.697 20.1047 14.1263V14.9161H28.2495V25.954H20.102V52.5617H7.0937V25.9513H0V14.9134ZM79.463 41.3277C77.3118 42.5859 76.2007 42.8691 71.9091 42.8691C66.8169 42.8691 64.859 41.058 64.2055 37.9888H89.2145C89.672 24.7312 88.5609 14.0228 71.9118 14.0228C55.1974 14.0228 51.671 23.2306 51.671 33.4815C51.671 43.9966 55.1974 53.2507 71.9118 53.2507C78.5045 53.2507 82.66 52.0306 87.0714 49.1629L79.463 41.3277ZM71.5197 24.7312C76.8734 24.7312 77.2655 27.2776 77.4615 30.3469H64.0747C64.6003 26.7547 66.2968 24.7312 71.5197 24.7312Z" fill="white" fill-opacity="0.7"/>
<path d="M115.005 52.5777L108.627 43.4597L102.25 52.5777H87.7085L101.321 33.1816L88.9557 15.6565L103.655 15.6456L108.69 22.7972L113.728 15.6483L128.588 15.6565L115.991 33.0944L129.644 52.5777H115.005ZM174.938 33.6391C174.938 21.1577 180.654 14.0605 195.369 14.0605C210.085 14.0605 215.735 21.1577 215.735 33.6391C215.735 46.1232 210.085 53.2857 195.369 53.2857C180.654 53.2857 174.938 46.1232 174.938 33.6391ZM202.662 34.034C202.662 29.3034 201.48 25.8856 195.369 25.8856C189.261 25.8856 188.077 29.3007 188.077 34.034C188.077 38.6992 189.259 42.1824 195.369 42.1824C201.48 42.1824 202.662 38.6992 202.662 34.034Z" fill="white" fill-opacity="0.7"/>
</g>
</svg>
