<svg width="375" height="350" viewBox="0 0 375 350" fill="none" xmlns="http://www.w3.org/2000/svg">
<g filter="url(#filter0_d)">
<rect width="375" height="287" fill="#191919"/>
</g>
<mask id="mask0" mask-type="alpha" maskUnits="userSpaceOnUse" x="126" y="80" width="124" height="143">
<path d="M187.672 80L249.343 115.606V186.819L187.672 222.425L126 186.819V115.606L187.672 80Z" fill="white"/>
</mask>
<g mask="url(#mask0)">
<path d="M139.625 79.142H125.897V223.283H139.625V79.142Z" fill="white"/>
<path d="M167.08 79.142H153.353V223.283H167.08V79.142Z" fill="white"/>
<path d="M194.536 79.142H180.808V223.283H194.536V79.142Z" fill="white"/>
<path d="M189.17 94.5238L182.306 82.6353L57.4762 154.706L64.34 166.594L189.17 94.5238Z" fill="white"/>
<path d="M313.577 150.293L306.713 138.404L181.883 210.475L188.747 222.363L313.577 150.293Z" fill="white"/>
<path d="M221.991 79.142H208.263V223.283H221.991V79.142Z" fill="white"/>
<path d="M249.446 79.142H235.719V223.283H249.446V79.142Z" fill="white"/>
</g>
<path d="M105.436 304H85.006C82.0971 304 80 306.037 80 308.731V325.883C80 328.577 82.0971 330.614 85.006 330.614H100.904C101.851 330.614 102.189 331.074 102.189 331.863V341.26C102.189 342.114 101.851 342.574 100.904 342.574H89.5385C88.5914 342.574 88.2532 342.114 88.2532 341.26V336.594H80V345.269C80 347.897 82.0971 350 85.006 350H105.436C108.413 350 110.442 347.897 110.442 345.269V327.92C110.442 325.226 108.413 323.189 105.436 323.189H89.5385C88.5914 323.189 88.2532 322.729 88.2532 321.874V312.74C88.2532 311.886 88.5914 311.426 89.5385 311.426H100.904C101.851 311.426 102.189 311.886 102.189 312.74V316.814H110.442V308.731C110.442 306.037 108.413 304 105.436 304Z" fill="#191919"/>
<path d="M139.254 304V341.26C139.254 342.114 138.916 342.574 137.968 342.574H126.603C125.656 342.574 125.318 342.114 125.318 341.26V304H117.065V345.269C117.065 347.897 119.162 350 122.071 350H142.501C145.477 350 147.507 347.897 147.507 345.269V304H139.254Z" fill="#191919"/>
<path d="M195.728 304H184.16L174.824 331.534L165.488 304H154.259V350H162.512V318.851L171.306 344.217H178.409L187.474 317.931V350H195.728V304Z" fill="#191919"/>
<path d="M243.954 304H232.386L223.05 331.534L213.715 304H202.485V350H210.738V318.851L219.533 344.217H226.636L235.701 317.931V350H243.954V304Z" fill="#191919"/>
<path d="M250.914 350H259.168V304H250.914V350Z" fill="#191919"/>
<path d="M295 304H264.558V311.426H275.72V350H283.973V311.426H295V304Z" fill="#191919"/>
<path d="M101.596 263H95.5714L90.7098 277.636L85.8481 263H80V287.451H84.298V270.894L88.8778 284.377H92.5769L97.2977 270.405V287.451H101.596V263Z" fill="white"/>
<path d="M120.98 263H110.341C108.826 263 107.734 264.083 107.734 265.515V284.936C107.734 286.333 108.826 287.451 110.341 287.451H120.98C122.53 287.451 123.587 286.333 123.587 284.936V265.515C123.587 264.083 122.53 263 120.98 263ZM119.289 267.646V282.805C119.289 283.259 119.113 283.504 118.619 283.504H112.701C112.208 283.504 112.032 283.259 112.032 282.805V267.646C112.032 267.192 112.208 266.947 112.701 266.947H118.619C119.113 266.947 119.289 267.192 119.289 267.646Z" fill="white"/>
<path d="M142.971 263H129.725V287.451H142.971C144.521 287.451 145.578 286.333 145.578 284.936V265.515C145.578 264.083 144.521 263 142.971 263ZM141.28 267.646V282.805C141.28 283.259 141.104 283.504 140.611 283.504H134.023V266.947H140.611C141.104 266.947 141.28 267.192 141.28 267.646Z" fill="white"/>
<path d="M165.912 266.947V263H151.715V287.451H165.912V283.504H156.013V277.182H163.411V273.2H156.013V266.947H165.912Z" fill="white"/>
<path d="M185.094 263H171.812V287.451H176.11V277.845H182.628C183.156 277.845 183.403 278.125 183.403 278.649V287.451H187.701V278.09C187.701 276.972 187.102 276.134 185.869 275.889C187.102 275.575 187.701 274.771 187.701 273.654V265.515C187.701 264.083 186.609 263 185.094 263ZM183.403 267.646V273.095C183.403 273.619 183.156 273.898 182.628 273.898H176.11V266.947H182.734C183.227 266.947 183.403 267.192 183.403 267.646Z" fill="white"/>
<path d="M206.588 263V278.998L198.838 263H193.905V287.451H198.133V271.348L205.954 287.451H210.816V263H206.588Z" fill="white"/>
<path d="M249.357 263L246.785 280.43L243.297 266.074H239.387L235.899 280.43L233.327 263H228.571L232.764 287.451H238.435L241.36 275.121L244.248 287.451H249.92L254.113 263H249.357Z" fill="white"/>
<path d="M273.247 266.947V263H259.049V287.451H273.247V283.504H263.347V277.182H270.745V273.2H263.347V266.947H273.247Z" fill="white"/>
<path d="M292.393 263H279.147V287.451H292.393C293.943 287.451 295 286.333 295 284.936V277.321C295 276.204 294.436 275.365 293.168 275.121C294.436 274.841 295 274.003 295 272.885V265.515C295 264.083 293.943 263 292.393 263ZM290.702 267.646V272.326C290.702 272.885 290.455 273.13 289.927 273.13H283.445V266.947H290.033C290.526 266.947 290.702 267.192 290.702 267.646ZM290.702 277.88V282.805C290.702 283.259 290.526 283.504 290.033 283.504H283.445V277.112H289.927C290.455 277.112 290.702 277.356 290.702 277.88Z" fill="white"/>
<defs>
<filter id="filter0_d" x="-20" y="-20" width="415" height="327" filterUnits="userSpaceOnUse" color-interpolation-filters="sRGB">
<feFlood flood-opacity="0" result="BackgroundImageFix"/>
<feColorMatrix in="SourceAlpha" type="matrix" values="0 0 0 0 0 0 0 0 0 0 0 0 0 0 0 0 0 0 127 0"/>
<feOffset/>
<feGaussianBlur stdDeviation="10"/>
<feColorMatrix type="matrix" values="0 0 0 0 0 0 0 0 0 0 0 0 0 0 0 0 0 0 0.2 0"/>
<feBlend mode="normal" in2="BackgroundImageFix" result="effect1_dropShadow"/>
<feBlend mode="normal" in="SourceGraphic" in2="effect1_dropShadow" result="shape"/>
</filter>
</defs>
</svg>
